<mxfile host="app.diagrams.net" modified="2021-01-20T17:04:36.042Z" agent="5.0 (Windows NT 10.0; Win64; x64) AppleWebKit/537.36 (KHTML, like Gecko) Chrome/87.0.4280.141 Safari/537.36 Edg/87.0.664.75" etag="-W93ax_IiF_YDWnBPlfi" version="14.2.5" type="github">
  <diagram id="C5RBs43oDa-KdzZeNtuy" name="Page-1">
    <mxGraphModel dx="1403" dy="733" grid="1" gridSize="10" guides="1" tooltips="1" connect="1" arrows="1" fold="1" page="1" pageScale="1" pageWidth="827" pageHeight="1169" math="0" shadow="0">
      <root>
        <mxCell id="WIyWlLk6GJQsqaUBKTNV-0" />
        <mxCell id="WIyWlLk6GJQsqaUBKTNV-1" parent="WIyWlLk6GJQsqaUBKTNV-0" />
        <mxCell id="Rk-_XmF4ZHx2wOONCAHg-1" value="" style="edgeStyle=orthogonalEdgeStyle;rounded=0;orthogonalLoop=1;jettySize=auto;html=1;" edge="1" parent="WIyWlLk6GJQsqaUBKTNV-1" source="WIyWlLk6GJQsqaUBKTNV-3" target="Rk-_XmF4ZHx2wOONCAHg-0">
          <mxGeometry relative="1" as="geometry" />
        </mxCell>
        <mxCell id="WIyWlLk6GJQsqaUBKTNV-3" value="Boot" style="rounded=1;whiteSpace=wrap;html=1;fontSize=12;glass=0;strokeWidth=1;shadow=0;" parent="WIyWlLk6GJQsqaUBKTNV-1" vertex="1">
          <mxGeometry x="160" y="30" width="120" height="40" as="geometry" />
        </mxCell>
        <mxCell id="Rk-_XmF4ZHx2wOONCAHg-4" value="" style="edgeStyle=orthogonalEdgeStyle;rounded=0;orthogonalLoop=1;jettySize=auto;html=1;" edge="1" parent="WIyWlLk6GJQsqaUBKTNV-1" source="Rk-_XmF4ZHx2wOONCAHg-0" target="Rk-_XmF4ZHx2wOONCAHg-3">
          <mxGeometry relative="1" as="geometry" />
        </mxCell>
        <mxCell id="Rk-_XmF4ZHx2wOONCAHg-0" value="Get current time&lt;br&gt;from internal clock&lt;br&gt;and get last checked time" style="whiteSpace=wrap;html=1;rounded=1;shadow=0;strokeWidth=1;glass=0;" vertex="1" parent="WIyWlLk6GJQsqaUBKTNV-1">
          <mxGeometry x="285" y="20" width="120" height="60" as="geometry" />
        </mxCell>
        <mxCell id="Rk-_XmF4ZHx2wOONCAHg-6" value="Yes" style="edgeStyle=orthogonalEdgeStyle;rounded=0;orthogonalLoop=1;jettySize=auto;html=1;" edge="1" parent="WIyWlLk6GJQsqaUBKTNV-1" source="Rk-_XmF4ZHx2wOONCAHg-3" target="Rk-_XmF4ZHx2wOONCAHg-5">
          <mxGeometry relative="1" as="geometry" />
        </mxCell>
        <mxCell id="Rk-_XmF4ZHx2wOONCAHg-15" value="" style="edgeStyle=orthogonalEdgeStyle;rounded=0;orthogonalLoop=1;jettySize=auto;html=1;" edge="1" parent="WIyWlLk6GJQsqaUBKTNV-1" source="Rk-_XmF4ZHx2wOONCAHg-3" target="Rk-_XmF4ZHx2wOONCAHg-14">
          <mxGeometry relative="1" as="geometry">
            <Array as="points">
              <mxPoint x="253" y="135" />
            </Array>
          </mxGeometry>
        </mxCell>
        <mxCell id="Rk-_XmF4ZHx2wOONCAHg-3" value="Has enough time passed?" style="rhombus;whiteSpace=wrap;html=1;rounded=1;shadow=0;strokeWidth=1;glass=0;" vertex="1" parent="WIyWlLk6GJQsqaUBKTNV-1">
          <mxGeometry x="300" y="90" width="90" height="90" as="geometry" />
        </mxCell>
        <mxCell id="Rk-_XmF4ZHx2wOONCAHg-8" value="" style="edgeStyle=orthogonalEdgeStyle;rounded=0;orthogonalLoop=1;jettySize=auto;html=1;" edge="1" parent="WIyWlLk6GJQsqaUBKTNV-1" source="Rk-_XmF4ZHx2wOONCAHg-5" target="Rk-_XmF4ZHx2wOONCAHg-7">
          <mxGeometry relative="1" as="geometry" />
        </mxCell>
        <mxCell id="Rk-_XmF4ZHx2wOONCAHg-5" value="Get GPS location" style="whiteSpace=wrap;html=1;rounded=1;shadow=0;strokeWidth=1;glass=0;" vertex="1" parent="WIyWlLk6GJQsqaUBKTNV-1">
          <mxGeometry x="430" y="105" width="120" height="60" as="geometry" />
        </mxCell>
        <mxCell id="Rk-_XmF4ZHx2wOONCAHg-32" style="edgeStyle=orthogonalEdgeStyle;rounded=0;orthogonalLoop=1;jettySize=auto;html=1;" edge="1" parent="WIyWlLk6GJQsqaUBKTNV-1" source="Rk-_XmF4ZHx2wOONCAHg-7" target="Rk-_XmF4ZHx2wOONCAHg-16">
          <mxGeometry relative="1" as="geometry" />
        </mxCell>
        <mxCell id="Rk-_XmF4ZHx2wOONCAHg-33" value="NO" style="edgeLabel;html=1;align=center;verticalAlign=middle;resizable=0;points=[];" vertex="1" connectable="0" parent="Rk-_XmF4ZHx2wOONCAHg-32">
          <mxGeometry x="0.1396" y="-1" relative="1" as="geometry">
            <mxPoint as="offset" />
          </mxGeometry>
        </mxCell>
        <mxCell id="Rk-_XmF4ZHx2wOONCAHg-34" style="edgeStyle=orthogonalEdgeStyle;rounded=0;orthogonalLoop=1;jettySize=auto;html=1;entryX=0.5;entryY=1;entryDx=0;entryDy=0;exitX=0;exitY=0.5;exitDx=0;exitDy=0;" edge="1" parent="WIyWlLk6GJQsqaUBKTNV-1" source="Rk-_XmF4ZHx2wOONCAHg-7" target="Rk-_XmF4ZHx2wOONCAHg-14">
          <mxGeometry relative="1" as="geometry">
            <Array as="points">
              <mxPoint x="213" y="228" />
            </Array>
          </mxGeometry>
        </mxCell>
        <mxCell id="Rk-_XmF4ZHx2wOONCAHg-35" value="YES" style="edgeLabel;html=1;align=center;verticalAlign=middle;resizable=0;points=[];" vertex="1" connectable="0" parent="Rk-_XmF4ZHx2wOONCAHg-34">
          <mxGeometry x="-0.2417" relative="1" as="geometry">
            <mxPoint x="1" as="offset" />
          </mxGeometry>
        </mxCell>
        <mxCell id="Rk-_XmF4ZHx2wOONCAHg-7" value="Still at &quot;home&quot; location" style="rhombus;whiteSpace=wrap;html=1;rounded=1;shadow=0;strokeWidth=1;glass=0;" vertex="1" parent="WIyWlLk6GJQsqaUBKTNV-1">
          <mxGeometry x="442.5" y="180" width="95" height="95" as="geometry" />
        </mxCell>
        <mxCell id="Rk-_XmF4ZHx2wOONCAHg-30" style="edgeStyle=orthogonalEdgeStyle;rounded=0;orthogonalLoop=1;jettySize=auto;html=1;exitX=0;exitY=0.5;exitDx=0;exitDy=0;" edge="1" parent="WIyWlLk6GJQsqaUBKTNV-1" source="Rk-_XmF4ZHx2wOONCAHg-14" target="WIyWlLk6GJQsqaUBKTNV-3">
          <mxGeometry relative="1" as="geometry">
            <Array as="points">
              <mxPoint x="230" y="135" />
            </Array>
          </mxGeometry>
        </mxCell>
        <mxCell id="Rk-_XmF4ZHx2wOONCAHg-14" value="Sleep for X milliseconds" style="whiteSpace=wrap;html=1;rounded=1;shadow=0;strokeWidth=1;glass=0;" vertex="1" parent="WIyWlLk6GJQsqaUBKTNV-1">
          <mxGeometry x="160" y="117.5" width="105" height="35" as="geometry" />
        </mxCell>
        <mxCell id="Rk-_XmF4ZHx2wOONCAHg-19" value="" style="edgeStyle=orthogonalEdgeStyle;rounded=0;orthogonalLoop=1;jettySize=auto;html=1;entryX=1;entryY=0.5;entryDx=0;entryDy=0;" edge="1" parent="WIyWlLk6GJQsqaUBKTNV-1" source="Rk-_XmF4ZHx2wOONCAHg-16" target="Rk-_XmF4ZHx2wOONCAHg-18">
          <mxGeometry relative="1" as="geometry">
            <Array as="points" />
          </mxGeometry>
        </mxCell>
        <mxCell id="Rk-_XmF4ZHx2wOONCAHg-16" value="Start scanning loop" style="whiteSpace=wrap;html=1;rounded=1;shadow=0;strokeWidth=1;glass=0;" vertex="1" parent="WIyWlLk6GJQsqaUBKTNV-1">
          <mxGeometry x="430" y="330" width="120" height="60" as="geometry" />
        </mxCell>
        <mxCell id="Rk-_XmF4ZHx2wOONCAHg-21" style="edgeStyle=orthogonalEdgeStyle;rounded=0;orthogonalLoop=1;jettySize=auto;html=1;entryX=0.5;entryY=0;entryDx=0;entryDy=0;exitX=0.5;exitY=0;exitDx=0;exitDy=0;" edge="1" parent="WIyWlLk6GJQsqaUBKTNV-1" source="Rk-_XmF4ZHx2wOONCAHg-18" target="Rk-_XmF4ZHx2wOONCAHg-16">
          <mxGeometry relative="1" as="geometry">
            <mxPoint x="550" y="327" as="targetPoint" />
            <Array as="points">
              <mxPoint x="323" y="285" />
              <mxPoint x="490" y="285" />
            </Array>
          </mxGeometry>
        </mxCell>
        <mxCell id="Rk-_XmF4ZHx2wOONCAHg-23" value="No" style="edgeLabel;html=1;align=center;verticalAlign=middle;resizable=0;points=[];" vertex="1" connectable="0" parent="Rk-_XmF4ZHx2wOONCAHg-21">
          <mxGeometry x="-0.1127" y="-3" relative="1" as="geometry">
            <mxPoint as="offset" />
          </mxGeometry>
        </mxCell>
        <mxCell id="Rk-_XmF4ZHx2wOONCAHg-25" value="YES" style="edgeStyle=orthogonalEdgeStyle;rounded=0;orthogonalLoop=1;jettySize=auto;html=1;exitX=0.5;exitY=1;exitDx=0;exitDy=0;entryX=0.5;entryY=0;entryDx=0;entryDy=0;" edge="1" parent="WIyWlLk6GJQsqaUBKTNV-1" source="Rk-_XmF4ZHx2wOONCAHg-18" target="Rk-_XmF4ZHx2wOONCAHg-24">
          <mxGeometry relative="1" as="geometry">
            <Array as="points">
              <mxPoint x="323" y="420" />
              <mxPoint x="490" y="420" />
            </Array>
          </mxGeometry>
        </mxCell>
        <mxCell id="Rk-_XmF4ZHx2wOONCAHg-18" value="Within 1 mile of &quot;Home&quot; base" style="rhombus;whiteSpace=wrap;html=1;rounded=1;shadow=0;strokeWidth=1;glass=0;" vertex="1" parent="WIyWlLk6GJQsqaUBKTNV-1">
          <mxGeometry x="265" y="315" width="115" height="90" as="geometry" />
        </mxCell>
        <mxCell id="Rk-_XmF4ZHx2wOONCAHg-27" value="" style="edgeStyle=orthogonalEdgeStyle;rounded=0;orthogonalLoop=1;jettySize=auto;html=1;" edge="1" parent="WIyWlLk6GJQsqaUBKTNV-1" source="Rk-_XmF4ZHx2wOONCAHg-24" target="Rk-_XmF4ZHx2wOONCAHg-26">
          <mxGeometry relative="1" as="geometry" />
        </mxCell>
        <mxCell id="Rk-_XmF4ZHx2wOONCAHg-24" value="Stop Scanning&lt;br&gt;When at Base&lt;br&gt;start upload loop" style="whiteSpace=wrap;html=1;rounded=1;shadow=0;strokeWidth=1;glass=0;" vertex="1" parent="WIyWlLk6GJQsqaUBKTNV-1">
          <mxGeometry x="430" y="450" width="120" height="60" as="geometry" />
        </mxCell>
        <mxCell id="Rk-_XmF4ZHx2wOONCAHg-28" style="edgeStyle=orthogonalEdgeStyle;rounded=0;orthogonalLoop=1;jettySize=auto;html=1;entryX=0.5;entryY=1;entryDx=0;entryDy=0;" edge="1" parent="WIyWlLk6GJQsqaUBKTNV-1" source="Rk-_XmF4ZHx2wOONCAHg-26" target="Rk-_XmF4ZHx2wOONCAHg-14">
          <mxGeometry relative="1" as="geometry" />
        </mxCell>
        <mxCell id="Rk-_XmF4ZHx2wOONCAHg-29" value="YES" style="edgeLabel;html=1;align=center;verticalAlign=middle;resizable=0;points=[];" vertex="1" connectable="0" parent="Rk-_XmF4ZHx2wOONCAHg-28">
          <mxGeometry x="-0.7111" relative="1" as="geometry">
            <mxPoint as="offset" />
          </mxGeometry>
        </mxCell>
        <mxCell id="Rk-_XmF4ZHx2wOONCAHg-26" value="Upload done?" style="rhombus;whiteSpace=wrap;html=1;rounded=1;shadow=0;strokeWidth=1;glass=0;" vertex="1" parent="WIyWlLk6GJQsqaUBKTNV-1">
          <mxGeometry x="282.5" y="440" width="80" height="80" as="geometry" />
        </mxCell>
      </root>
    </mxGraphModel>
  </diagram>
</mxfile>
